<svg xmlns="http://www.w3.org/2000/svg" version="1.1" xmlns:xlink="http://www.w3.org/1999/xlink" xmlns:svgjs="http://svgjs.dev/svgjs" width="2000" height="1500" viewBox="0 0 2000 1500"><rect width="2000" height="1500" fill="#293040"></rect><g transform="matrix(0.75,0,0,0.75,249.090909090909,644.8986757051914)"><svg viewBox="0 0 396 55" data-background-color="#293040" preserveAspectRatio="xMidYMid meet" height="277" width="2000" xmlns="http://www.w3.org/2000/svg" xmlns:xlink="http://www.w3.org/1999/xlink"><g id="tight-bounds" transform="matrix(1,0,0,1,0.2400000000000091,0.3246586580720816)"><svg viewBox="0 0 395.52 54.350682683855844" height="54.350682683855844" width="395.52"><g><svg viewBox="0 0 395.52 54.350682683855844" height="54.350682683855844" width="395.52"><g><svg viewBox="0 0 395.52 54.350682683855844" height="54.350682683855844" width="395.52"><g id="textblocktransform"><svg viewBox="0 0 395.52 54.350682683855844" height="54.350682683855844" width="395.52" id="textblock"><g><svg viewBox="0 0 395.52 54.350682683855844" height="54.350682683855844" width="395.52"><g transform="matrix(1,0,0,1,0,0)"><svg width="395.52" viewBox="1.5 -46.2 341.27 46.900000000000006" height="54.350682683855844" data-palette-color="#d5b263"><path d="M18.05-35.85Q21.75-35.85 24.4-32.8L24.4-32.8 21.35-30.3Q19.95-31.8 18.53-32.68 17.1-33.55 15.3-33.55L15.3-33.55Q13.65-33.55 12.1-32.85 10.55-32.15 9.58-30.88 8.6-29.6 8.6-28L8.6-28Q8.6-26.4 9.6-25.05 10.6-23.7 12.18-22.93 13.75-22.15 15.45-22.15L15.45-22.15Q16.1-22.15 16.73-22.2 17.35-22.25 17.75-22.5L17.75-22.5 18.2-21.1Q13.85-19.8 10.4-16.98 6.95-14.15 6.95-10.15L6.95-10.15Q6.95-7.15 8.7-5.23 10.45-3.3 13.5-3.3L13.5-3.3Q16-3.3 18.43-4.28 20.85-5.25 22.7-6.8 24.55-8.35 25.55-10L25.55-10 26.7-9Q24.25-4.9 20.15-2.18 16.05 0.55 11.3 0.55L11.3 0.55Q8.5 0.55 6.28-0.58 4.05-1.7 2.78-3.73 1.5-5.75 1.5-8.4L1.5-8.4Q1.5-12 4.25-14.93 7-17.85 10.95-19.6L10.95-19.6Q8.45-20.2 6.95-21.98 5.45-23.75 5.45-26.1L5.45-26.1Q5.45-29.25 7.43-31.45 9.4-33.65 12.33-34.75 15.25-35.85 18.05-35.85L18.05-35.85ZM40.2-18.9Q37.95-16.55 36.32-12.78 34.7-9 34.7-5.9L34.7-5.9Q34.7-3.2 35.87-1.38 37.05 0.45 39.65 0.45L39.65 0.45Q41.75 0.45 43.67-0.65 45.6-1.75 46.95-3.5L46.95-3.5 46.4-4.25Q44.85-3.2 43.35-3.2L43.35-3.2Q41-3.2 39.8-4.85 38.6-6.5 38.6-8.85L38.6-8.85Q38.6-12.65 40.55-16.05 42.5-19.45 45.5-22.65L45.5-22.65 44.7-23.35Q41.2-21.15 38.3-21.15L38.3-21.15Q36.6-21.15 35.2-22.68 33.8-24.2 33.05-26.05L33.05-26.05 29-21.5Q29.35-20.5 30.9-19.2L30.9-19.2 27.55-12.2 29.4-11.35 32.65-18.5Q33.5-18.15 34.05-18.05 34.6-17.95 35.55-17.95L35.55-17.95Q38-17.95 40.05-19.05L40.05-19.05 40.2-18.9ZM57.54-41.7L55.84-30.05 54.19-29.45 52.14-39.85 57.54-41.7ZM57.49-24.8L57.49-4.2Q57.49-3.45 57.87-2.98 58.24-2.5 58.94-2.5L58.94-2.5Q59.49-2.5 60.17-3 60.84-3.5 61.54-4.45L61.54-4.45 62.34-3.7Q61.19-1.55 59.57-0.65 57.94 0.25 56.59 0.25L56.59 0.25Q54.79 0.25 53.82-0.9 52.84-2.05 52.84-4.8L52.84-4.8 52.84-23 57.49-24.8ZM79.49-25.3Q81.54-25.3 83.29-24.15 85.04-23 86.04-20.5L86.04-20.5 81.94-18.4Q81.44-20.15 79.97-21.15 78.49-22.15 76.84-22.15L76.84-22.15Q74.44-22.15 72.59-20.9 70.74-19.65 69.74-17.7 68.74-15.75 68.74-13.75L68.74-13.75Q68.74-10.25 69.89-7.73 71.04-5.2 73.04-3.88 75.04-2.55 77.54-2.55L77.54-2.55Q80.54-2.55 82.79-4.03 85.04-5.5 87.04-7.8L87.04-7.8 87.89-7Q85.44-3.25 82.72-1.33 79.99 0.6 76.04 0.6L76.04 0.6Q72.94 0.6 70.49-0.85 68.04-2.3 66.64-4.98 65.24-7.65 65.24-11.15L65.24-11.15Q65.24-15.05 66.84-18.28 68.44-21.5 71.64-23.4 74.84-25.3 79.49-25.3L79.49-25.3ZM97.99-46.2L97.99-9.7 98.34-9.7Q99.79-15.4 102.56-20.43 105.34-25.45 109.29-25.45L109.29-25.45Q110.89-25.45 111.84-24.2 112.79-22.95 112.79-21.15L112.79-21.15Q112.79-18.1 110.19-15.3 107.59-12.5 104.24-10.5L104.24-10.5Q104.49-10.15 105.97-7.98 107.44-5.8 109.19-4.1 110.94-2.4 112.19-2.4L112.19-2.4Q113.99-2.4 115.44-4.1L115.44-4.1 116.24-3.25Q115.14-1.55 113.22-0.53 111.29 0.5 109.44 0.5L109.44 0.5Q107.29 0.5 105.56-1.1 103.84-2.7 101.84-5.5L101.84-5.5Q100.24-7.7 99.44-8.35L99.44-8.35 98.99-8Q98.64-6.85 98.39-4.6 98.14-2.35 98.09-0.6L98.09-0.6 93.49 0.7 93.49-44.3 97.99-46.2ZM106.19-20.05Q104.69-20.05 103.19-17.53 101.69-15 100.09-11.2L100.09-11.2Q99.29-9.35 99.19-9.25L99.19-9.25Q102.54-10.65 105.24-13.1 107.94-15.55 107.94-18.05L107.94-18.05Q107.94-18.7 107.47-19.38 106.99-20.05 106.19-20.05L106.19-20.05ZM153.84-35.6L153.84-34.15Q148.28-33.4 143.84-30.33 139.38-27.25 136.86-22.58 134.34-17.9 134.34-12.45L134.34-12.45Q134.34-7.9 136.09-5.25 137.84-2.6 140.69-2.6L140.69-2.6Q143.49-2.6 146.06-6.48 148.63-10.35 150.21-16.63 151.78-22.9 151.78-29.7L151.78-29.7 156.49-31.55 156.49-5.35Q156.49-3.95 157.09-3.1 157.69-2.25 158.74-2.25L158.74-2.25Q159.53-2.25 160.38-2.78 161.24-3.3 161.69-4.05L161.69-4.05 162.38-3.4Q161.69-1.85 160.24-0.8 158.78 0.25 156.94 0.25L156.94 0.25Q154.63 0.25 153.21-1.35 151.78-2.95 151.78-5.9L151.78-5.9 151.78-15.45 151.53-15.45Q147.94 0.55 139.34 0.55L139.34 0.55Q134.88 0.55 132.19-2.58 129.49-5.7 129.49-11.15L129.49-11.15Q129.49-17.4 132.78-22.9 136.09-28.4 141.69-31.85 147.28-35.3 153.84-35.6L153.84-35.6ZM191.68-25.45Q193.18-25.45 194.01-24.48 194.83-23.5 194.83-21.2L194.83-21.2 194.83-4.2Q194.83-3.45 195.18-2.98 195.53-2.5 196.13-2.5L196.13-2.5Q196.73-2.5 197.43-3 198.13-3.5 198.78-4.45L198.78-4.45 199.58-3.7Q198.53-1.45 197.08-0.58 195.63 0.3 196.53 0.28 197.43 0.25 194.38 0.25L194.38 0.25Q190.23 0.25 190.23-4.8L190.23-4.8 190.23-18.6Q190.23-19.1 189.98-19.45 189.73-19.8 189.33-19.8L189.33-19.8Q188.23-19.8 186.93-17.4 185.63-15 184.73-10.63 183.83-6.25 183.83-0.6L183.83-0.6 179.28 0.7 179.28-18.6Q179.28-19.1 179.03-19.45 178.78-19.8 178.43-19.8L178.43-19.8Q177.43-19.8 176.11-17.38 174.78-14.95 173.81-10.58 172.83-6.2 172.83-0.6L172.83-0.6 168.53 0.7 168.53-20.7Q168.53-21.55 168.11-22.05 167.68-22.55 167.03-22.55L167.03-22.55Q165.78-22.55 164.48-20.4L164.48-20.4 163.68-21.2Q164.73-23.45 166.18-24.43 167.63-25.4 167.96-25.43 168.28-25.45 168.93-25.45L168.93-25.45Q171.33-25.45 172.18-24.43 173.03-23.4 173.03-21.7L173.03-21.7 173.03-13.35 173.18-13.35Q174.43-18.8 176.56-22.13 178.68-25.45 180.78-25.45L180.78-25.45Q182.33-25.45 183.11-24.5 183.88-23.55 183.88-21.2L183.88-21.2 183.88-13.35 184.18-13.35Q185.43-18.8 187.51-22.13 189.58-25.45 191.68-25.45L191.68-25.45ZM225.93-13.2Q225.93-10.15 223.98-6.9 222.03-3.65 219.16-1.53 216.28 0.6 213.73 0.6L213.73 0.6Q209.63 0.6 207.31-2.18 204.98-4.95 204.98-9.25L204.98-9.25 204.98-44.3 209.53-46.2 209.53-8.15Q209.53-5.75 210.98-3.95 212.43-2.15 215.08-2.15L215.08-2.15Q217.28-2.15 218.91-3.4 220.53-4.65 221.36-6.48 222.18-8.3 222.18-9.95L222.18-9.95Q222.18-12.45 220.88-15.1 219.58-17.75 217.51-19.45 215.43-21.15 213.18-21.15L213.18-21.15 217.63-24.85Q219.78-24.15 221.71-22.18 223.63-20.2 224.78-17.73 225.93-15.25 225.93-13.2L225.93-13.2ZM258.88-26.85Q262.43-25.2 262.43-20.95L262.43-20.95Q262.43-19.95 262.2-18.73 261.98-17.5 261.63-16.6L261.63-16.6 254.98-0.85Q254.73 0.05 253.58 0.05L253.58 0.05Q252.28 0.05 251.98-0.9L251.98-0.9 247.88-15.15 242.53-1Q242.23-0.35 241.95-0.08 241.68 0.2 241.08 0.2L241.08 0.2Q240.48 0.2 240.18-0.05 239.88-0.3 239.68-0.75L239.68-0.75 234.08-18.3Q233.68-19.7 233.13-20.25 232.58-20.8 231.58-20.8L231.58-20.8Q230.43-20.8 229.43-19.8L229.43-19.8 228.88-20.6Q229.98-22.6 231.5-23.8 233.03-25 234.93-25L234.93-25Q235.88-25 236.48-24.35 237.08-23.7 237.43-22.88 237.78-22.05 238.43-20.05L238.43-20.05 242.68-6.8 247.03-18.25 245.43-23.75 250.08-25.5 255.38-6.7 258.33-13.85Q258.73-14.65 258.73-16.25L258.73-16.25Q258.73-18.1 257.8-19.53 256.88-20.95 255.23-21.8L255.23-21.8 258.88-26.85ZM279.38-25Q281.83-25 284-23.95 286.18-22.9 287.18-20.75L287.18-20.75 283.58-18.8Q282.78-19.95 281.38-20.88 279.98-21.8 278.38-21.8L278.38-21.8Q275.83-21.8 273.93-20.48 272.03-19.15 271.03-16.9 270.03-14.65 270.03-11.9L270.03-11.9Q270.03-7.95 271.38-5.48 272.73-3 275.63-3L275.63-3Q279.73-3 281.28-6.3 282.83-9.6 282.83-13.5L282.83-13.5 282.83-15.75 287.23-17.6 287.23-4.45Q287.23-3.8 287.58-3.2 287.93-2.6 288.63-2.6L288.63-2.6Q290.08-2.6 291.28-4.6L291.28-4.6 292.03-3.8Q291.43-2.1 289.93-0.93 288.43 0.25 286.93 0.25L286.93 0.25Q284.78 0.25 283.75-1.35 282.73-2.95 282.73-5.6L282.73-5.6 282.63-5.6Q281.38-2.95 279.25-1.18 277.13 0.6 274.78 0.6L274.78 0.6Q270.53 0.6 268.35-2.33 266.18-5.25 266.18-10.15L266.18-10.15Q266.18-14.05 267.93-17.48 269.68-20.9 272.7-22.95 275.73-25 279.38-25L279.38-25ZM306.27-18.9Q304.02-16.55 302.4-12.78 300.77-9 300.77-5.9L300.77-5.9Q300.77-3.2 301.95-1.38 303.12 0.45 305.72 0.45L305.72 0.45Q307.82 0.45 309.75-0.65 311.67-1.75 313.02-3.5L313.02-3.5 312.47-4.25Q310.92-3.2 309.42-3.2L309.42-3.2Q307.07-3.2 305.87-4.85 304.67-6.5 304.67-8.85L304.67-8.85Q304.67-12.65 306.62-16.05 308.57-19.45 311.57-22.65L311.57-22.65 310.77-23.35Q307.27-21.15 304.37-21.15L304.37-21.15Q302.67-21.15 301.27-22.68 299.87-24.2 299.12-26.05L299.12-26.05 295.07-21.5Q295.42-20.5 296.97-19.2L296.97-19.2 293.62-12.2 295.47-11.35 298.72-18.5Q299.57-18.15 300.12-18.05 300.67-17.95 301.62-17.95L301.62-17.95Q304.07-17.95 306.12-19.05L306.12-19.05 306.27-18.9ZM330.12-25Q332.57-25 334.75-23.95 336.92-22.9 337.92-20.75L337.92-20.75 334.32-18.8Q333.52-19.95 332.12-20.88 330.72-21.8 329.12-21.8L329.12-21.8Q326.57-21.8 324.67-20.48 322.77-19.15 321.77-16.9 320.77-14.65 320.77-11.9L320.77-11.9Q320.77-7.95 322.12-5.48 323.47-3 326.37-3L326.37-3Q330.47-3 332.02-6.3 333.57-9.6 333.57-13.5L333.57-13.5 333.57-15.75 337.97-17.6 337.97-4.45Q337.97-3.8 338.32-3.2 338.67-2.6 339.37-2.6L339.37-2.6Q340.82-2.6 342.02-4.6L342.02-4.6 342.77-3.8Q342.17-2.1 340.67-0.93 339.17 0.25 337.67 0.25L337.67 0.25Q335.52 0.25 334.5-1.35 333.47-2.95 333.47-5.6L333.47-5.6 333.37-5.6Q332.12-2.95 330-1.18 327.87 0.6 325.52 0.6L325.52 0.6Q321.27 0.6 319.1-2.33 316.92-5.25 316.92-10.15L316.92-10.15Q316.92-14.05 318.67-17.48 320.42-20.9 323.45-22.95 326.47-25 330.12-25L330.12-25Z" opacity="1" transform="matrix(1,0,0,1,0,0)" fill="#d5b263" class="wordmark-text-0" data-fill-palette-color="primary" id="text-0"></path></svg></g></svg></g></svg></g></svg></g></svg></g><defs></defs></svg><rect width="395.52" height="54.350682683855844" fill="none" stroke="none" visibility="hidden"></rect></g></svg></g></svg>